<svg width="227" height="25" viewBox="0 0 227 25" fill="none" xmlns="http://www.w3.org/2000/svg">
<mask id="mask0_641_94" style="mask-type:alpha" maskUnits="userSpaceOnUse" x="0" y="0" width="24" height="24">
<rect width="24" height="24" fill="#D9D9D9"/>
</mask>
<g mask="url(#mask0_641_94)">
<path d="M11.9984 17.6258C12.2817 17.6258 12.5194 17.5258 12.7114 17.3258C12.9027 17.1258 12.9984 16.8841 12.9984 16.6008C12.9984 16.3175 12.9027 16.0758 12.7114 15.8758C12.5194 15.6758 12.2817 15.5758 11.9984 15.5758C11.6984 15.5758 11.4527 15.6758 11.2614 15.8758C11.0694 16.0758 10.9734 16.3175 10.9734 16.6008C10.9734 16.8841 11.0694 17.1258 11.2614 17.3258C11.4527 17.5258 11.6984 17.6258 11.9984 17.6258ZM11.2734 14.0258H12.6984C12.6984 13.5425 12.7651 13.1548 12.8984 12.8628C13.0317 12.5715 13.3484 12.1758 13.8484 11.6758C14.2984 11.2425 14.6401 10.8381 14.8734 10.4628C15.1067 10.0881 15.2234 9.65079 15.2234 9.15079C15.2234 8.28413 14.9151 7.60913 14.2984 7.12579C13.6817 6.64246 12.9484 6.40079 12.0984 6.40079C11.2651 6.40079 10.5734 6.62579 10.0234 7.07579C9.47341 7.52579 9.08175 8.05079 8.84841 8.65079L10.1484 9.15079C10.2651 8.83413 10.4694 8.51746 10.7614 8.20079C11.0527 7.88413 11.4901 7.72579 12.0734 7.72579C12.6734 7.72579 13.1151 7.88813 13.3984 8.21279C13.6817 8.53813 13.8234 8.89246 13.8234 9.27579C13.8234 9.60913 13.7234 9.91746 13.5234 10.2008C13.3234 10.4841 13.0734 10.7591 12.7734 11.0258C12.1234 11.6091 11.7111 12.0801 11.5364 12.4388C11.3611 12.7968 11.2734 13.3258 11.2734 14.0258ZM11.9984 21.5008C10.6817 21.5008 9.44441 21.2508 8.28641 20.7508C7.12775 20.2508 6.12341 19.5758 5.27341 18.7258C4.42341 17.8758 3.74841 16.8715 3.24841 15.7128C2.74841 14.5548 2.49841 13.3175 2.49841 12.0008C2.49841 10.6841 2.74841 9.44646 3.24841 8.28779C3.74841 7.12979 4.42341 6.12579 5.27341 5.27579C6.12341 4.42579 7.12775 3.75079 8.28641 3.25079C9.44441 2.75079 10.6817 2.50079 11.9984 2.50079C13.3151 2.50079 14.5527 2.75079 15.7114 3.25079C16.8694 3.75079 17.8734 4.42579 18.7234 5.27579C19.5734 6.12579 20.2484 7.12979 20.7484 8.28779C21.2484 9.44646 21.4984 10.6841 21.4984 12.0008C21.4984 13.3175 21.2484 14.5548 20.7484 15.7128C20.2484 16.8715 19.5734 17.8758 18.7234 18.7258C17.8734 19.5758 16.8694 20.2508 15.7114 20.7508C14.5527 21.2508 13.3151 21.5008 11.9984 21.5008ZM11.9984 20.0008C14.2317 20.0008 16.1234 19.2258 17.6734 17.6758C19.2234 16.1258 19.9984 14.2341 19.9984 12.0008C19.9984 9.76746 19.2234 7.87579 17.6734 6.32579C16.1234 4.77579 14.2317 4.00079 11.9984 4.00079C9.76508 4.00079 7.87341 4.77579 6.32341 6.32579C4.77341 7.87579 3.99841 9.76746 3.99841 12.0008C3.99841 14.2341 4.77341 16.1258 6.32341 17.6758C7.87341 19.2258 9.76508 20.0008 11.9984 20.0008Z" fill="white"/>
</g>
<path d="M35.233 17V6.81818H36.4659V11.3523H41.8949V6.81818H43.1278V17H41.8949V12.446H36.4659V17H35.233ZM48.6388 17.1591C47.9031 17.1591 47.2683 16.9967 46.7347 16.6719C46.2044 16.3438 45.7951 15.8864 45.5067 15.2997C45.2217 14.7098 45.0792 14.0237 45.0792 13.2415C45.0792 12.4593 45.2217 11.7699 45.5067 11.1733C45.7951 10.5734 46.1961 10.1061 46.7099 9.77131C47.2269 9.43324 47.8301 9.2642 48.5195 9.2642C48.9173 9.2642 49.31 9.33049 49.6978 9.46307C50.0856 9.59564 50.4386 9.81108 50.7567 10.1094C51.0749 10.4044 51.3285 10.7955 51.5174 11.2827C51.7063 11.7699 51.8008 12.3698 51.8008 13.0824V13.5795H45.9144V12.5653H50.6076C50.6076 12.1345 50.5214 11.75 50.3491 11.4119C50.18 11.0739 49.9381 10.8071 49.6232 10.6115C49.3117 10.416 48.9438 10.3182 48.5195 10.3182C48.0522 10.3182 47.6478 10.4342 47.3065 10.6662C46.9684 10.8949 46.7082 11.1932 46.5259 11.5611C46.3436 11.929 46.2525 12.3234 46.2525 12.7443V13.4205C46.2525 13.9972 46.3519 14.486 46.5508 14.8871C46.753 15.2848 47.033 15.5881 47.391 15.7969C47.7489 16.0024 48.1649 16.1051 48.6388 16.1051C48.9471 16.1051 49.2255 16.062 49.4741 15.9759C49.726 15.8864 49.9431 15.7538 50.1254 15.5781C50.3076 15.3991 50.4485 15.1771 50.5479 14.9119L51.6815 15.2301C51.5621 15.6146 51.3616 15.9527 51.0799 16.2443C50.7982 16.5327 50.4502 16.758 50.0359 16.9205C49.6216 17.0795 49.1559 17.1591 48.6388 17.1591ZM54.7589 6.81818V17H53.5856V6.81818H54.7589ZM56.9078 19.8636V9.36364H58.0414V10.5767H58.1806C58.2667 10.4441 58.3861 10.2751 58.5385 10.0696C58.6943 9.8608 58.9164 9.67519 59.2047 9.51278C59.4964 9.34706 59.8908 9.2642 60.388 9.2642C61.031 9.2642 61.5977 9.42495 62.0882 9.74645C62.5788 10.0679 62.9616 10.5237 63.2367 11.1136C63.5118 11.7036 63.6493 12.3996 63.6493 13.2017C63.6493 14.0104 63.5118 14.7114 63.2367 15.3047C62.9616 15.8946 62.5804 16.352 62.0932 16.6768C61.606 16.9983 61.0442 17.1591 60.4078 17.1591C59.9173 17.1591 59.5246 17.0779 59.2296 16.9155C58.9346 16.7498 58.7076 16.5625 58.5485 16.3537C58.3894 16.1416 58.2667 15.9659 58.1806 15.8267H58.0811V19.8636H56.9078ZM58.0613 13.1818C58.0613 13.7585 58.1458 14.2673 58.3148 14.7081C58.4838 15.1456 58.7308 15.4886 59.0556 15.7372C59.3804 15.9825 59.7781 16.1051 60.2488 16.1051C60.7393 16.1051 61.1486 15.9759 61.4767 15.7173C61.8082 15.4555 62.0568 15.1042 62.2225 14.6634C62.3915 14.2192 62.476 13.7254 62.476 13.1818C62.476 12.6449 62.3932 12.161 62.2275 11.7301C62.065 11.2959 61.8181 10.9529 61.4867 10.701C61.1586 10.4458 60.7459 10.3182 60.2488 10.3182C59.7715 10.3182 59.3704 10.4392 59.0456 10.6811C58.7208 10.9197 58.4756 11.2545 58.3098 11.6854C58.1441 12.1129 58.0613 12.6117 58.0613 13.1818ZM77.7289 10H76.4959C76.423 9.64536 76.2954 9.33381 76.1131 9.06534C75.9341 8.79688 75.7154 8.5715 75.4569 8.3892C75.2016 8.2036 74.9183 8.06439 74.6067 7.97159C74.2952 7.87879 73.9703 7.83239 73.6323 7.83239C73.0158 7.83239 72.4573 7.98816 71.9569 8.29972C71.4597 8.61127 71.0636 9.07031 70.7686 9.67685C70.477 10.2834 70.3311 11.0275 70.3311 11.9091C70.3311 12.7907 70.477 13.5348 70.7686 14.1413C71.0636 14.7479 71.4597 15.2069 71.9569 15.5185C72.4573 15.83 73.0158 15.9858 73.6323 15.9858C73.9703 15.9858 74.2952 15.9394 74.6067 15.8466C74.9183 15.7538 75.2016 15.6162 75.4569 15.4339C75.7154 15.2483 75.9341 15.0213 76.1131 14.7528C76.2954 14.4811 76.423 14.1695 76.4959 13.8182H77.7289C77.6361 14.3385 77.467 14.8042 77.2218 15.2152C76.9765 15.6262 76.6716 15.9759 76.307 16.2642C75.9424 16.5492 75.5331 16.7663 75.079 16.9155C74.6283 17.0646 74.146 17.1392 73.6323 17.1392C72.7639 17.1392 71.9917 16.9271 71.3155 16.5028C70.6394 16.0786 70.1074 15.4754 69.7196 14.6932C69.3319 13.911 69.138 12.983 69.138 11.9091C69.138 10.8352 69.3319 9.9072 69.7196 9.125C70.1074 8.3428 70.6394 7.73958 71.3155 7.31534C71.9917 6.8911 72.7639 6.67898 73.6323 6.67898C74.146 6.67898 74.6283 6.75355 75.079 6.9027C75.5331 7.05185 75.9424 7.2706 76.307 7.55895C76.6716 7.84399 76.9765 8.192 77.2218 8.60298C77.467 9.01065 77.6361 9.47633 77.7289 10ZM82.7638 17.1591C82.0281 17.1591 81.3933 16.9967 80.8597 16.6719C80.3294 16.3438 79.9201 15.8864 79.6317 15.2997C79.3467 14.7098 79.2042 14.0237 79.2042 13.2415C79.2042 12.4593 79.3467 11.7699 79.6317 11.1733C79.9201 10.5734 80.3211 10.1061 80.8349 9.77131C81.3519 9.43324 81.9551 9.2642 82.6445 9.2642C83.0423 9.2642 83.435 9.33049 83.8228 9.46307C84.2106 9.59564 84.5636 9.81108 84.8817 10.1094C85.1999 10.4044 85.4535 10.7955 85.6424 11.2827C85.8313 11.7699 85.9258 12.3698 85.9258 13.0824V13.5795H80.0394V12.5653H84.7326C84.7326 12.1345 84.6464 11.75 84.4741 11.4119C84.305 11.0739 84.0631 10.8071 83.7482 10.6115C83.4367 10.416 83.0688 10.3182 82.6445 10.3182C82.1772 10.3182 81.7728 10.4342 81.4315 10.6662C81.0934 10.8949 80.8332 11.1932 80.6509 11.5611C80.4686 11.929 80.3775 12.3234 80.3775 12.7443V13.4205C80.3775 13.9972 80.4769 14.486 80.6758 14.8871C80.878 15.2848 81.158 15.5881 81.516 15.7969C81.8739 16.0024 82.2899 16.1051 82.7638 16.1051C83.0721 16.1051 83.3505 16.062 83.5991 15.9759C83.851 15.8864 84.0681 15.7538 84.2504 15.5781C84.4326 15.3991 84.5735 15.1771 84.6729 14.9119L85.8065 15.2301C85.6871 15.6146 85.4866 15.9527 85.2049 16.2443C84.9232 16.5327 84.5752 16.758 84.1609 16.9205C83.7466 17.0795 83.2809 17.1591 82.7638 17.1591ZM88.8839 12.4062V17H87.7106V9.36364H88.8441V10.5568H88.9435C89.1225 10.169 89.3943 9.85748 89.7589 9.62216C90.1235 9.38352 90.5941 9.2642 91.1708 9.2642C91.6879 9.2642 92.1403 9.37027 92.5281 9.58239C92.9158 9.79119 93.2174 10.1094 93.4329 10.5369C93.6483 10.9612 93.756 11.4981 93.756 12.1477V17H92.5827V12.2273C92.5827 11.6274 92.427 11.16 92.1154 10.8253C91.8039 10.4872 91.3763 10.3182 90.8327 10.3182C90.4582 10.3182 90.1235 10.3994 89.8285 10.5618C89.5368 10.7242 89.3065 10.9612 89.1374 11.2727C88.9684 11.5843 88.8839 11.9621 88.8839 12.4062ZM99.2211 9.36364V10.358H95.2637V9.36364H99.2211ZM96.4171 7.53409H97.5904V14.8125C97.5904 15.1439 97.6384 15.3925 97.7346 15.5582C97.834 15.7206 97.9599 15.83 98.1124 15.8864C98.2682 15.9394 98.4322 15.9659 98.6046 15.9659C98.7338 15.9659 98.8399 15.9593 98.9228 15.946C99.0056 15.9295 99.0719 15.9162 99.1216 15.9062L99.3603 16.9602C99.2807 16.9901 99.1697 17.0199 99.0272 17.0497C98.8846 17.0829 98.704 17.0994 98.4853 17.0994C98.1538 17.0994 97.829 17.0282 97.5108 16.8857C97.196 16.7431 96.9341 16.526 96.7253 16.2344C96.5198 15.9427 96.4171 15.5748 96.4171 15.1307V7.53409ZM104.106 17.1591C103.37 17.1591 102.735 16.9967 102.202 16.6719C101.671 16.3438 101.262 15.8864 100.974 15.2997C100.689 14.7098 100.546 14.0237 100.546 13.2415C100.546 12.4593 100.689 11.7699 100.974 11.1733C101.262 10.5734 101.663 10.1061 102.177 9.77131C102.694 9.43324 103.297 9.2642 103.986 9.2642C104.384 9.2642 104.777 9.33049 105.165 9.46307C105.552 9.59564 105.905 9.81108 106.224 10.1094C106.542 10.4044 106.795 10.7955 106.984 11.2827C107.173 11.7699 107.268 12.3698 107.268 13.0824V13.5795H101.381V12.5653H106.074C106.074 12.1345 105.988 11.75 105.816 11.4119C105.647 11.0739 105.405 10.8071 105.09 10.6115C104.778 10.416 104.411 10.3182 103.986 10.3182C103.519 10.3182 103.115 10.4342 102.773 10.6662C102.435 10.8949 102.175 11.1932 101.993 11.5611C101.81 11.929 101.719 12.3234 101.719 12.7443V13.4205C101.719 13.9972 101.819 14.486 102.018 14.8871C102.22 15.2848 102.5 15.5881 102.858 15.7969C103.216 16.0024 103.632 16.1051 104.106 16.1051C104.414 16.1051 104.692 16.062 104.941 15.9759C105.193 15.8864 105.41 15.7538 105.592 15.5781C105.774 15.3991 105.915 15.1771 106.015 14.9119L107.148 15.2301C107.029 15.6146 106.828 15.9527 106.547 16.2443C106.265 16.5327 105.917 16.758 105.503 16.9205C105.088 17.0795 104.623 17.1591 104.106 17.1591ZM109.052 17V9.36364H110.186V10.517H110.265C110.405 10.1392 110.657 9.83262 111.021 9.5973C111.386 9.36198 111.797 9.24432 112.254 9.24432C112.34 9.24432 112.448 9.24597 112.577 9.24929C112.706 9.2526 112.804 9.25758 112.871 9.2642V10.4574C112.831 10.4474 112.74 10.4325 112.597 10.4126C112.458 10.3894 112.31 10.3778 112.155 10.3778C111.783 10.3778 111.452 10.4557 111.16 10.6115C110.872 10.764 110.643 10.9761 110.474 11.2479C110.309 11.5163 110.226 11.8229 110.226 12.1676V17H109.052Z" fill="white" fill-opacity="0.85"/>
<mask id="mask1_641_94" style="mask-type:alpha" maskUnits="userSpaceOnUse" x="202" y="0" width="25" height="25">
<rect x="202.09" y="0.0761719" width="24" height="24" fill="#D9D9D9"/>
</mask>
<g mask="url(#mask1_641_94)">
<path d="M214.09 19.3454C213.677 19.3454 213.324 19.1985 213.03 18.9048C212.737 18.611 212.59 18.2579 212.59 17.8454C212.59 17.4329 212.737 17.0798 213.03 16.7861C213.324 16.4923 213.677 16.3454 214.09 16.3454C214.502 16.3454 214.855 16.4923 215.149 16.7861C215.443 17.0798 215.59 17.4329 215.59 17.8454C215.59 18.2579 215.443 18.611 215.149 18.9048C214.855 19.1985 214.502 19.3454 214.09 19.3454ZM214.09 13.5762C213.677 13.5762 213.324 13.4293 213.03 13.1355C212.737 12.8418 212.59 12.4887 212.59 12.0762C212.59 11.6637 212.737 11.3106 213.03 11.0168C213.324 10.7231 213.677 10.5762 214.09 10.5762C214.502 10.5762 214.855 10.7231 215.149 11.0168C215.443 11.3106 215.59 11.6637 215.59 12.0762C215.59 12.4887 215.443 12.8418 215.149 13.1355C214.855 13.4293 214.502 13.5762 214.09 13.5762ZM214.09 7.80693C213.677 7.80693 213.324 7.66006 213.03 7.36631C212.737 7.07257 212.59 6.71946 212.59 6.30696C212.59 5.89447 212.737 5.54136 213.03 5.24761C213.324 4.95387 213.677 4.80701 214.09 4.80701C214.502 4.80701 214.855 4.95387 215.149 5.24761C215.443 5.54136 215.59 5.89447 215.59 6.30696C215.59 6.71946 215.443 7.07257 215.149 7.36631C214.855 7.66006 214.502 7.80693 214.09 7.80693Z" fill="#1C1B1F"/>
</g>
<mask id="mask2_641_94" style="mask-type:alpha" maskUnits="userSpaceOnUse" x="202" y="0" width="24" height="24">
<rect x="202" width="24" height="24" fill="#D9D9D9"/>
</mask>
<g mask="url(#mask2_641_94)">
<path d="M214 19.2692C213.588 19.2692 213.234 19.1223 212.941 18.8286C212.647 18.5348 212.5 18.1817 212.5 17.7692C212.5 17.3567 212.647 17.0036 212.941 16.7099C213.234 16.4161 213.588 16.2693 214 16.2693C214.412 16.2693 214.766 16.4161 215.059 16.7099C215.353 17.0036 215.5 17.3567 215.5 17.7692C215.5 18.1817 215.353 18.5348 215.059 18.8286C214.766 19.1223 214.412 19.2692 214 19.2692ZM214 13.5C213.588 13.5 213.234 13.3531 212.941 13.0594C212.647 12.7656 212.5 12.4125 212.5 12C212.5 11.5875 212.647 11.2344 212.941 10.9407C213.234 10.6469 213.588 10.5 214 10.5C214.412 10.5 214.766 10.6469 215.059 10.9407C215.353 11.2344 215.5 11.5875 215.5 12C215.5 12.4125 215.353 12.7656 215.059 13.0594C214.766 13.3531 214.412 13.5 214 13.5ZM214 7.73076C213.588 7.73076 213.234 7.58389 212.941 7.29014C212.647 6.9964 212.5 6.64328 212.5 6.23078C212.5 5.8183 212.647 5.46518 212.941 5.17143C213.234 4.8777 213.588 4.73083 214 4.73083C214.412 4.73083 214.766 4.8777 215.059 5.17143C215.353 5.46518 215.5 5.8183 215.5 6.23078C215.5 6.64328 215.353 6.9964 215.059 7.29014C214.766 7.58389 214.412 7.73076 214 7.73076Z" fill="white"/>
</g>
</svg>
