<svg width="227" height="43" viewBox="0 0 227 43" fill="none" xmlns="http://www.w3.org/2000/svg">
<circle cx="18" cy="21.0762" r="18" fill="#D36A80"/>
<path d="M18.8146 14.258H21.2976V23.9739C21.2931 24.8645 21.1042 25.6315 20.7308 26.2747C20.3575 26.9134 19.8357 27.406 19.1655 27.7523C18.4998 28.0942 17.7238 28.2651 16.8377 28.2651C16.0281 28.2651 15.2994 28.1212 14.6516 27.8333C14.0084 27.5409 13.4979 27.1091 13.12 26.5378C12.7422 25.9666 12.5533 25.2559 12.5533 24.4057H15.043C15.0475 24.7791 15.1284 25.1007 15.2859 25.3706C15.4478 25.6404 15.6705 25.8474 15.9538 25.9913C16.2372 26.1352 16.5633 26.2072 16.9322 26.2072C17.3325 26.2072 17.6721 26.124 17.951 25.9576C18.2299 25.7866 18.4413 25.5347 18.5852 25.2019C18.7337 24.869 18.8101 24.4597 18.8146 23.9739V14.258Z" fill="white"/>
<path d="M48.7134 5.62163H50.1353V12.3248C50.1353 12.931 50.0153 13.4496 49.7752 13.8805C49.5382 14.3114 49.2043 14.6407 48.7734 14.8684C48.3426 15.0931 47.8378 15.2054 47.2592 15.2054C46.7268 15.2054 46.2482 15.1085 45.8235 14.9146C45.4019 14.7207 45.0679 14.4391 44.8217 14.0698C44.5786 13.6974 44.457 13.245 44.457 12.7125H45.8743C45.8743 12.9741 45.9343 13.2003 46.0543 13.3912C46.1774 13.582 46.3452 13.7312 46.5575 13.839C46.773 13.9436 47.0192 13.9959 47.2962 13.9959C47.5978 13.9959 47.8532 13.9328 48.0625 13.8066C48.2749 13.6774 48.4364 13.4881 48.5472 13.2388C48.658 12.9895 48.7134 12.6848 48.7134 12.3248V5.62163ZM54.1643 15.2331C53.715 15.2331 53.3087 15.15 52.9456 14.9838C52.5824 14.8146 52.2947 14.5699 52.0823 14.2498C51.873 13.9297 51.7684 13.5373 51.7684 13.0726C51.7684 12.6725 51.8453 12.3432 51.9992 12.0847C52.1531 11.8262 52.3608 11.6215 52.6224 11.4707C52.884 11.3199 53.1764 11.206 53.4996 11.1291C53.8227 11.0521 54.152 10.9937 54.4875 10.9537C54.9122 10.9044 55.2569 10.8644 55.5216 10.8336C55.7863 10.7998 55.9786 10.7459 56.0986 10.6721C56.2187 10.5982 56.2787 10.4782 56.2787 10.312V10.2797C56.2787 9.87648 56.1648 9.5641 55.9371 9.34251C55.7124 9.12092 55.3769 9.01012 54.9307 9.01012C54.4659 9.01012 54.0997 9.11322 53.8319 9.31942C53.5673 9.52255 53.3841 9.74876 53.2826 9.99805L51.9854 9.70259C52.1392 9.27172 52.3639 8.92395 52.6594 8.65927C52.9579 8.39151 53.301 8.19762 53.6888 8.07759C54.0766 7.95449 54.4844 7.89293 54.9122 7.89293C55.1953 7.89293 55.4954 7.92679 55.8124 7.9945C56.1325 8.05913 56.431 8.17915 56.708 8.35458C56.9881 8.53001 57.2174 8.78084 57.3959 9.10707C57.5744 9.43022 57.6636 9.85032 57.6636 10.3674V15.0762H56.3156V14.1067H56.2602C56.171 14.2852 56.0371 14.4606 55.8586 14.633C55.6801 14.8053 55.4508 14.9484 55.1707 15.0623C54.8907 15.1762 54.5552 15.2331 54.1643 15.2331ZM54.4644 14.1252C54.846 14.1252 55.1723 14.0498 55.4431 13.899C55.717 13.7482 55.9247 13.5512 56.0663 13.3081C56.211 13.0618 56.2833 12.7987 56.2833 12.5186V11.6046C56.234 11.6538 56.1386 11.7 55.9971 11.7431C55.8586 11.7831 55.7001 11.8185 55.5216 11.8493C55.3431 11.877 55.1692 11.9031 54.9999 11.9277C54.8306 11.9493 54.6891 11.9677 54.5752 11.9831C54.3074 12.017 54.0628 12.0739 53.8412 12.1539C53.6227 12.234 53.4472 12.3494 53.3149 12.5002C53.1856 12.6479 53.121 12.8449 53.121 13.0911C53.121 13.4327 53.2472 13.6912 53.4996 13.8667C53.7519 14.039 54.0735 14.1252 54.4644 14.1252ZM62.489 15.2193C61.8027 15.2193 61.2118 15.0639 60.7163 14.753C60.2238 14.4391 59.8453 14.0067 59.5806 13.4558C59.3159 12.9049 59.1836 12.274 59.1836 11.563C59.1836 10.8429 59.319 10.2073 59.5898 9.65643C59.8607 9.10245 60.2423 8.67004 60.7347 8.3592C61.2272 8.04835 61.8073 7.89293 62.4751 7.89293C63.0137 7.89293 63.4938 7.99296 63.9155 8.193C64.3371 8.38997 64.6772 8.66696 64.9357 9.02397C65.1973 9.38098 65.3527 9.798 65.402 10.275H64.0586C63.9847 9.94265 63.8155 9.65643 63.5508 9.41637C63.2892 9.17631 62.9383 9.05629 62.4982 9.05629C62.1135 9.05629 61.7765 9.15785 61.4872 9.36097C61.201 9.56102 60.9779 9.84724 60.8178 10.2196C60.6578 10.589 60.5778 11.026 60.5778 11.5307C60.5778 12.0478 60.6563 12.494 60.8132 12.8695C60.9702 13.245 61.1918 13.5358 61.478 13.742C61.7673 13.9482 62.1074 14.0513 62.4982 14.0513C62.7598 14.0513 62.9968 14.0036 63.2092 13.9082C63.4246 13.8097 63.6046 13.6697 63.7493 13.4881C63.897 13.3065 64.0001 13.088 64.0586 12.8326H65.402C65.3527 13.2911 65.2035 13.7005 64.9542 14.0605C64.7049 14.4206 64.371 14.7038 63.9524 14.91C63.5369 15.1162 63.0491 15.2193 62.489 15.2193ZM69.865 15.2193C69.2002 15.2193 68.6201 15.0669 68.1246 14.7623C67.6291 14.4576 67.2443 14.0313 66.9704 13.4835C66.6965 12.9357 66.5596 12.2955 66.5596 11.563C66.5596 10.8275 66.6965 10.1842 66.9704 9.63334C67.2443 9.08245 67.6291 8.65465 68.1246 8.34996C68.6201 8.04528 69.2002 7.89293 69.865 7.89293C70.5297 7.89293 71.1099 8.04528 71.6054 8.34996C72.1009 8.65465 72.4856 9.08245 72.7595 9.63334C73.0334 10.1842 73.1704 10.8275 73.1704 11.563C73.1704 12.2955 73.0334 12.9357 72.7595 13.4835C72.4856 14.0313 72.1009 14.4576 71.6054 14.7623C71.1099 15.0669 70.5297 15.2193 69.865 15.2193ZM69.8696 14.0605C70.3005 14.0605 70.6575 13.9467 70.9406 13.7189C71.2238 13.4912 71.433 13.188 71.5684 12.8095C71.7069 12.4309 71.7762 12.0139 71.7762 11.5584C71.7762 11.106 71.7069 10.6905 71.5684 10.312C71.433 9.93034 71.2238 9.62411 70.9406 9.39329C70.6575 9.16246 70.3005 9.04705 69.8696 9.04705C69.4356 9.04705 69.0756 9.16246 68.7893 9.39329C68.5062 9.62411 68.2954 9.93034 68.1569 10.312C68.0215 10.6905 67.9537 11.106 67.9537 11.5584C67.9537 12.0139 68.0215 12.4309 68.1569 12.8095C68.2954 13.188 68.5062 13.4912 68.7893 13.7189C69.0756 13.9467 69.4356 14.0605 69.8696 14.0605ZM74.8219 15.0762V5.62163H76.2022V9.13477H76.2853C76.3654 8.98704 76.4808 8.81623 76.6316 8.62234C76.7824 8.42844 76.9917 8.25917 77.2594 8.11452C77.5272 7.9668 77.8811 7.89293 78.3212 7.89293C78.8936 7.89293 79.4045 8.03758 79.8539 8.32688C80.3032 8.61618 80.6556 9.0332 80.911 9.57795C81.1696 10.1227 81.2988 10.7782 81.2988 11.5446C81.2988 12.3109 81.1711 12.968 80.9157 13.5158C80.6602 14.0605 80.3094 14.4806 79.8631 14.7761C79.4168 15.0685 78.9075 15.2147 78.335 15.2147C77.9042 15.2147 77.5518 15.1423 77.2779 14.9977C77.007 14.853 76.7947 14.6838 76.6408 14.4899C76.4869 14.296 76.3684 14.1236 76.2853 13.9728H76.1699V15.0762H74.8219ZM76.1745 11.5307C76.1745 12.0293 76.2469 12.4663 76.3915 12.8418C76.5362 13.2173 76.7454 13.5112 77.0194 13.7235C77.2933 13.9328 77.6287 14.0375 78.0257 14.0375C78.4382 14.0375 78.7828 13.9282 79.0598 13.7097C79.3368 13.4881 79.5461 13.188 79.6877 12.8095C79.8323 12.4309 79.9047 12.0047 79.9047 11.5307C79.9047 11.0629 79.8339 10.6428 79.6923 10.2704C79.5538 9.89802 79.3445 9.60411 79.0645 9.38867C78.7875 9.17324 78.4412 9.06552 78.0257 9.06552C77.6257 9.06552 77.2871 9.16862 77.0101 9.37482C76.7362 9.58102 76.5285 9.86879 76.3869 10.2381C76.2453 10.6074 76.1745 11.0383 76.1745 11.5307ZM85.9049 15.2193C85.2063 15.2193 84.6046 15.07 84.0999 14.7715C83.5982 14.4699 83.2104 14.0467 82.9365 13.502C82.6657 12.9541 82.5303 12.3124 82.5303 11.5769C82.5303 10.8506 82.6657 10.2104 82.9365 9.65643C83.2104 9.10245 83.5921 8.67004 84.0814 8.3592C84.5738 8.04835 85.1494 7.89293 85.808 7.89293C86.2081 7.89293 86.5959 7.9591 86.9713 8.09144C87.3468 8.22378 87.6838 8.43152 87.9823 8.71467C88.2809 8.99781 88.5163 9.36559 88.6887 9.818C88.861 10.2673 88.9472 10.8136 88.9472 11.4569V11.9462H83.3105V10.9121H87.5945C87.5945 10.5489 87.5207 10.2273 87.373 9.94727C87.2252 9.66412 87.0175 9.44099 86.7497 9.27788C86.4851 9.11476 86.1742 9.0332 85.8172 9.0332C85.4294 9.0332 85.0909 9.12861 84.8016 9.31942C84.5154 9.50716 84.2938 9.75337 84.1368 10.0581C83.9829 10.3597 83.906 10.6874 83.906 11.0414V11.8493C83.906 12.3232 83.9891 12.7264 84.1553 13.0588C84.3245 13.3912 84.56 13.6451 84.8616 13.8205C85.1632 13.9928 85.5156 14.079 85.9188 14.079C86.1804 14.079 86.4189 14.0421 86.6343 13.9682C86.8498 13.8913 87.036 13.7774 87.1929 13.6266C87.3499 13.4758 87.4699 13.2896 87.553 13.068L88.8595 13.3034C88.7548 13.6882 88.5671 14.0252 88.2963 14.3145C88.0285 14.6007 87.6915 14.8238 87.2852 14.9838C86.8821 15.1408 86.422 15.2193 85.9049 15.2193ZM97.7046 5.62163H99.1265V12.3248C99.1265 12.931 99.0065 13.4496 98.7664 13.8805C98.5294 14.3114 98.1955 14.6407 97.7646 14.8684C97.3338 15.0931 96.829 15.2054 96.2504 15.2054C95.718 15.2054 95.2394 15.1085 94.8147 14.9146C94.3931 14.7207 94.0592 14.4391 93.8129 14.0698C93.5698 13.6974 93.4482 13.245 93.4482 12.7125H94.8655C94.8655 12.9741 94.9255 13.2003 95.0455 13.3912C95.1686 13.582 95.3364 13.7312 95.5487 13.839C95.7642 13.9436 96.0104 13.9959 96.2874 13.9959C96.589 13.9959 96.8444 13.9328 97.0537 13.8066C97.2661 13.6774 97.4276 13.4881 97.5384 13.2388C97.6492 12.9895 97.7046 12.6848 97.7046 12.3248V5.62163ZM103.156 15.2331C102.706 15.2331 102.3 15.15 101.937 14.9838C101.574 14.8146 101.286 14.5699 101.074 14.2498C100.864 13.9297 100.76 13.5373 100.76 13.0726C100.76 12.6725 100.837 12.3432 100.99 12.0847C101.144 11.8262 101.352 11.6215 101.614 11.4707C101.875 11.3199 102.168 11.206 102.491 11.1291C102.814 11.0521 103.143 10.9937 103.479 10.9537C103.903 10.9044 104.248 10.8644 104.513 10.8336C104.777 10.7998 104.97 10.7459 105.09 10.6721C105.21 10.5982 105.27 10.4782 105.27 10.312V10.2797C105.27 9.87648 105.156 9.5641 104.928 9.34251C104.704 9.12092 104.368 9.01012 103.922 9.01012C103.457 9.01012 103.091 9.11322 102.823 9.31942C102.558 9.52255 102.375 9.74876 102.274 9.99805L100.977 9.70259C101.13 9.27172 101.355 8.92395 101.651 8.65927C101.949 8.39151 102.292 8.19762 102.68 8.07759C103.068 7.95449 103.476 7.89293 103.903 7.89293C104.187 7.89293 104.487 7.92679 104.804 7.9945C105.124 8.05913 105.422 8.17915 105.699 8.35458C105.979 8.53001 106.209 8.78084 106.387 9.10707C106.566 9.43022 106.655 9.85032 106.655 10.3674V15.0762H105.307V14.1067H105.251C105.162 14.2852 105.028 14.4606 104.85 14.633C104.671 14.8053 104.442 14.9484 104.162 15.0623C103.882 15.1762 103.546 15.2331 103.156 15.2331ZM103.456 14.1252C103.837 14.1252 104.163 14.0498 104.434 13.899C104.708 13.7482 104.916 13.5512 105.058 13.3081C105.202 13.0618 105.275 12.7987 105.275 12.5186V11.6046C105.225 11.6538 105.13 11.7 104.988 11.7431C104.85 11.7831 104.691 11.8185 104.513 11.8493C104.334 11.877 104.16 11.9031 103.991 11.9277C103.822 11.9493 103.68 11.9677 103.566 11.9831C103.299 12.017 103.054 12.0739 102.832 12.1539C102.614 12.234 102.438 12.3494 102.306 12.5002C102.177 12.6479 102.112 12.8449 102.112 13.0911C102.112 13.4327 102.238 13.6912 102.491 13.8667C102.743 14.039 103.065 14.1252 103.456 14.1252ZM108.493 15.0762V7.98526H109.818V9.13938H109.906C110.054 8.74852 110.295 8.44383 110.631 8.22532C110.966 8.00373 111.368 7.89293 111.836 7.89293C112.31 7.89293 112.707 8.00373 113.027 8.22532C113.35 8.44691 113.588 8.7516 113.742 9.13938H113.816C113.985 8.76083 114.255 8.45922 114.624 8.23455C114.993 8.00681 115.433 7.89293 115.944 7.89293C116.588 7.89293 117.112 8.09452 117.519 8.49769C117.928 8.90086 118.133 9.5087 118.133 10.3212V15.0762H116.752V10.4505C116.752 9.97035 116.621 9.62257 116.36 9.40714C116.098 9.1917 115.786 9.08398 115.423 9.08398C114.973 9.08398 114.624 9.22248 114.375 9.49947C114.125 9.77338 114.001 10.1258 114.001 10.5566V15.0762H112.625V10.3627C112.625 9.97804 112.505 9.66874 112.265 9.43484C112.025 9.20094 111.713 9.08398 111.328 9.08398C111.066 9.08398 110.825 9.15323 110.603 9.29173C110.385 9.42714 110.208 9.61642 110.072 9.85955C109.94 10.1027 109.874 10.3843 109.874 10.7044V15.0762H108.493ZM123.039 15.2193C122.34 15.2193 121.738 15.07 121.234 14.7715C120.732 14.4699 120.344 14.0467 120.07 13.502C119.799 12.9541 119.664 12.3124 119.664 11.5769C119.664 10.8506 119.799 10.2104 120.07 9.65643C120.344 9.10245 120.726 8.67004 121.215 8.3592C121.708 8.04835 122.283 7.89293 122.942 7.89293C123.342 7.89293 123.73 7.9591 124.105 8.09144C124.481 8.22378 124.818 8.43152 125.116 8.71467C125.415 8.99781 125.65 9.36559 125.822 9.818C125.995 10.2673 126.081 10.8136 126.081 11.4569V11.9462H120.444V10.9121H124.728C124.728 10.5489 124.654 10.2273 124.507 9.94727C124.359 9.66412 124.151 9.44099 123.884 9.27788C123.619 9.11476 123.308 9.0332 122.951 9.0332C122.563 9.0332 122.225 9.12861 121.935 9.31942C121.649 9.50716 121.428 9.75337 121.271 10.0581C121.117 10.3597 121.04 10.6874 121.04 11.0414V11.8493C121.04 12.3232 121.123 12.7264 121.289 13.0588C121.458 13.3912 121.694 13.6451 121.995 13.8205C122.297 13.9928 122.649 14.079 123.053 14.079C123.314 14.079 123.553 14.0421 123.768 13.9682C123.984 13.8913 124.17 13.7774 124.327 13.6266C124.484 13.4758 124.604 13.2896 124.687 13.068L125.993 13.3034C125.889 13.6882 125.701 14.0252 125.43 14.3145C125.162 14.6007 124.825 14.8238 124.419 14.9838C124.016 15.1408 123.556 15.2193 123.039 15.2193ZM132.926 9.71644L131.675 9.93803C131.623 9.77799 131.54 9.62565 131.426 9.481C131.315 9.33635 131.164 9.21786 130.973 9.12553C130.782 9.0332 130.544 8.98704 130.258 8.98704C129.867 8.98704 129.541 9.07475 129.279 9.25018C129.017 9.42253 128.887 9.64566 128.887 9.91957C128.887 10.1565 128.974 10.3474 129.15 10.492C129.325 10.6367 129.608 10.7551 129.999 10.8475L131.126 11.106C131.778 11.2568 132.264 11.4892 132.584 11.8031C132.905 12.117 133.065 12.5248 133.065 13.0265C133.065 13.4512 132.941 13.8297 132.695 14.1621C132.452 14.4914 132.112 14.7499 131.675 14.9377C131.241 15.1254 130.738 15.2193 130.165 15.2193C129.371 15.2193 128.724 15.05 128.222 14.7115C127.72 14.3699 127.412 13.8851 127.299 13.2573L128.633 13.0542C128.716 13.4019 128.887 13.6651 129.145 13.8436C129.404 14.019 129.741 14.1067 130.156 14.1067C130.609 14.1067 130.97 14.0128 131.241 13.8251C131.512 13.6343 131.647 13.4019 131.647 13.128C131.647 12.9064 131.564 12.7202 131.398 12.5694C131.235 12.4186 130.984 12.3047 130.646 12.2278L129.445 11.9647C128.784 11.8139 128.294 11.5738 127.977 11.2445C127.663 10.9152 127.506 10.4982 127.506 9.99343C127.506 9.57487 127.623 9.20863 127.857 8.89471C128.091 8.58079 128.414 8.33611 128.827 8.16069C129.239 7.98219 129.711 7.89293 130.244 7.89293C131.01 7.89293 131.613 8.05913 132.054 8.39151C132.494 8.72082 132.784 9.16246 132.926 9.71644Z" fill="white"/>
<path d="M48.4659 28.3489H49.2628V34.6429C49.2599 35.2111 49.1577 35.6855 48.956 36.0662C48.7543 36.4441 48.4759 36.7267 48.1207 36.9142C47.7656 37.1017 47.358 37.1955 46.8977 37.1955C46.446 37.1955 46.0426 37.1117 45.6875 36.9441C45.3324 36.7765 45.0526 36.5407 44.848 36.2367C44.6463 35.9327 44.5455 35.5762 44.5455 35.1671H45.3295C45.3295 35.4256 45.3977 35.6543 45.5341 35.8532C45.6705 36.0492 45.8565 36.2026 46.0923 36.3134C46.331 36.4242 46.5994 36.4796 46.8977 36.4796C47.2074 36.4796 47.4787 36.4142 47.7116 36.2836C47.9474 36.1529 48.1321 35.9526 48.2656 35.6827C48.3991 35.41 48.4659 35.0634 48.4659 34.6429V28.3489ZM53.2514 37.2253C52.8565 37.2253 52.4957 37.1486 52.169 36.9952C51.8423 36.839 51.5824 36.6145 51.3892 36.3219C51.196 36.0265 51.0994 35.6685 51.0994 35.248C51.0994 34.9242 51.1605 34.6515 51.2827 34.4299C51.4048 34.2083 51.5781 34.0265 51.8026 33.8844C52.027 33.7424 52.2926 33.6301 52.5994 33.5478C52.9063 33.4654 53.2443 33.4015 53.6136 33.356C53.9801 33.3105 54.2898 33.2708 54.5426 33.2367C54.7983 33.2026 54.9929 33.1486 55.1264 33.0748C55.2599 33.0009 55.3267 32.8816 55.3267 32.7168V32.5634C55.3267 32.1174 55.1932 31.7665 54.9261 31.5108C54.6619 31.2523 54.2813 31.123 53.7841 31.123C53.3125 31.123 52.9276 31.2267 52.6293 31.4341C52.3338 31.6415 52.1264 31.8858 52.0071 32.1671L51.2869 31.9071C51.4347 31.5492 51.6392 31.2637 51.9006 31.0506C52.1619 30.8347 52.4545 30.6799 52.7784 30.5861C53.1023 30.4895 53.4304 30.4412 53.7628 30.4412C54.0128 30.4412 54.2727 30.4739 54.5426 30.5392C54.8153 30.6046 55.0682 30.7182 55.3011 30.8801C55.5341 31.0392 55.723 31.2623 55.8679 31.5492C56.0128 31.8333 56.0852 32.1941 56.0852 32.6316V37.0762H55.3267V36.0407H55.2798C55.1889 36.2338 55.054 36.4213 54.875 36.6032C54.696 36.785 54.4716 36.9341 54.2017 37.0506C53.9318 37.1671 53.6151 37.2253 53.2514 37.2253ZM53.3537 36.5307C53.7571 36.5307 54.1065 36.4412 54.402 36.2623C54.6974 36.0833 54.9247 35.8461 55.0838 35.5506C55.2457 35.2523 55.3267 34.9242 55.3267 34.5662V33.6202C55.2699 33.6742 55.1747 33.7225 55.0412 33.7651C54.9105 33.8077 54.7585 33.8461 54.5852 33.8801C54.4148 33.9114 54.2443 33.9384 54.0739 33.9611C53.9034 33.9838 53.75 34.0037 53.6136 34.0208C53.2443 34.0662 52.929 34.1373 52.6676 34.2338C52.4063 34.3304 52.206 34.464 52.0668 34.6344C51.9276 34.802 51.858 35.0179 51.858 35.2821C51.858 35.6799 52 35.9881 52.2841 36.2069C52.5682 36.4228 52.9247 36.5307 53.3537 36.5307ZM60.6598 37.2125C60.0746 37.2125 59.5646 37.0662 59.13 36.7736C58.6982 36.481 58.3629 36.0804 58.1243 35.5719C57.8857 35.0634 57.7663 34.4838 57.7663 33.8333C57.7663 33.177 57.8871 32.5932 58.1286 32.0819C58.3729 31.5705 58.7109 31.1699 59.1428 30.8801C59.5746 30.5875 60.076 30.4412 60.647 30.4412C61.0845 30.4412 61.4808 30.5265 61.8359 30.6969C62.1911 30.8645 62.4837 31.1017 62.7138 31.4086C62.9467 31.7125 63.093 32.0676 63.1527 32.4739H62.3857C62.3061 32.1046 62.1143 31.7892 61.8104 31.5279C61.5092 31.2637 61.1257 31.1316 60.6598 31.1316C60.2422 31.1316 59.8729 31.2452 59.5518 31.4725C59.2308 31.6969 58.9794 32.0108 58.7976 32.4142C58.6186 32.8148 58.5291 33.2793 58.5291 33.8077C58.5291 34.339 58.6172 34.8091 58.7933 35.2182C58.9695 35.6245 59.2166 35.9426 59.5348 36.1728C59.8558 36.4029 60.2308 36.5179 60.6598 36.5179C60.9496 36.5179 61.2138 36.464 61.4524 36.356C61.6939 36.2452 61.8956 36.089 62.0575 35.8873C62.2223 35.6855 62.3331 35.4455 62.3899 35.1671H63.157C63.1001 35.562 62.9595 35.9142 62.7351 36.2239C62.5135 36.5307 62.2251 36.7722 61.87 36.9483C61.5178 37.1245 61.1143 37.2125 60.6598 37.2125ZM67.3267 37.2125C66.7614 37.2125 66.2614 37.0691 65.8267 36.7821C65.3949 36.4952 65.0568 36.0989 64.8125 35.5932C64.5682 35.0847 64.446 34.498 64.446 33.8333C64.446 33.1628 64.5682 32.5733 64.8125 32.0648C65.0568 31.5534 65.3949 31.1557 65.8267 30.8716C66.2614 30.5847 66.7614 30.4412 67.3267 30.4412C67.892 30.4412 68.3906 30.5847 68.8224 30.8716C69.2543 31.1586 69.5923 31.5563 69.8366 32.0648C70.0838 32.5733 70.2074 33.1628 70.2074 33.8333C70.2074 34.498 70.0852 35.0847 69.8409 35.5932C69.5966 36.0989 69.2571 36.4952 68.8224 36.7821C68.3906 37.0691 67.892 37.2125 67.3267 37.2125ZM67.3267 36.5179C67.7813 36.5179 68.1662 36.3958 68.4815 36.1515C68.7969 35.9071 69.0355 35.5819 69.1974 35.1756C69.3622 34.7694 69.4446 34.3219 69.4446 33.8333C69.4446 33.3446 69.3622 32.8958 69.1974 32.4867C69.0355 32.0776 68.7969 31.7495 68.4815 31.5023C68.1662 31.2551 67.7813 31.1316 67.3267 31.1316C66.875 31.1316 66.4901 31.2551 66.1719 31.5023C65.8565 31.7495 65.6165 32.0776 65.4517 32.4867C65.2898 32.8958 65.2088 33.3446 65.2088 33.8333C65.2088 34.3219 65.2898 34.7694 65.4517 35.1756C65.6165 35.5819 65.8565 35.9071 66.1719 36.1515C66.4872 36.3958 66.8722 36.5179 67.3267 36.5179ZM72.0302 37.0762V28.3489H72.793V31.7793H72.8612C72.9464 31.5833 73.0685 31.3816 73.2276 31.1742C73.3896 30.9668 73.6012 30.7935 73.8626 30.6543C74.1268 30.5123 74.4592 30.4412 74.8597 30.4412C75.3967 30.4412 75.8683 30.5833 76.2745 30.8674C76.6808 31.1486 76.9975 31.5435 77.2248 32.052C77.4521 32.5577 77.5657 33.1472 77.5657 33.8205C77.5657 34.4966 77.4521 35.089 77.2248 35.5975C77.0004 36.106 76.685 36.5023 76.2788 36.7864C75.8754 37.0705 75.4066 37.2125 74.8725 37.2125C74.4748 37.2125 74.1424 37.1415 73.8754 36.9995C73.6112 36.8574 73.3981 36.6827 73.2362 36.4753C73.0742 36.2651 72.9492 36.0605 72.8612 35.8617H72.7674V37.0762H72.0302ZM72.7802 33.8077C72.7802 34.3361 72.8583 34.8049 73.0146 35.214C73.1737 35.6202 73.4009 35.9398 73.6964 36.1728C73.9947 36.4029 74.3555 36.5179 74.7788 36.5179C75.2134 36.5179 75.5813 36.3986 75.8825 36.16C76.1836 35.9185 76.4123 35.5932 76.5685 35.1841C76.7248 34.775 76.8029 34.3162 76.8029 33.8077C76.8029 33.3049 76.7248 32.8517 76.5685 32.4483C76.4151 32.0449 76.1879 31.7253 75.8867 31.4895C75.5856 31.2509 75.2163 31.1316 74.7788 31.1316C74.3526 31.1316 73.9904 31.2466 73.6921 31.4767C73.3967 31.704 73.1708 32.0194 73.0146 32.4228C72.8583 32.8233 72.7802 33.285 72.7802 33.8077ZM81.8782 37.2125C81.2674 37.2125 80.739 37.0705 80.293 36.7864C79.8469 36.4995 79.5018 36.1032 79.2575 35.5975C79.016 35.089 78.8952 34.5037 78.8952 33.8418C78.8952 33.1827 79.016 32.5975 79.2575 32.0861C79.5018 31.5719 79.8384 31.1699 80.2674 30.8801C80.6992 30.5875 81.1978 30.4412 81.7631 30.4412C82.1183 30.4412 82.4606 30.5066 82.7901 30.6373C83.1197 30.7651 83.4151 30.9625 83.6765 31.2296C83.9407 31.4938 84.1495 31.8276 84.3029 32.231C84.4563 32.6316 84.533 33.106 84.533 33.6543V34.0293H79.4194V33.3603H83.7575C83.7575 32.9398 83.6722 32.562 83.5018 32.2267C83.3342 31.8887 83.0998 31.6216 82.7987 31.4256C82.5004 31.2296 82.1552 31.1316 81.7631 31.1316C81.3484 31.1316 80.9833 31.2424 80.668 31.464C80.3526 31.6855 80.1055 31.9782 79.9265 32.3418C79.7504 32.7054 79.6609 33.1032 79.658 33.535V33.9355C79.658 34.4554 79.7475 34.91 79.9265 35.2992C80.1083 35.6855 80.3654 35.9853 80.6978 36.1983C81.0302 36.4114 81.4237 36.5179 81.8782 36.5179C82.1879 36.5179 82.4592 36.4696 82.6921 36.373C82.9279 36.2765 83.1254 36.1472 83.2844 35.9853C83.4464 35.8205 83.5685 35.6401 83.6509 35.4441L84.3711 35.6784C84.2717 35.954 84.1083 36.2083 83.881 36.4412C83.6566 36.6742 83.3754 36.8617 83.0373 37.0037C82.7021 37.1429 82.3157 37.2125 81.8782 37.2125ZM86.2131 30.5307H86.9759V37.7111C86.9759 38.0833 86.9063 38.4043 86.767 38.6742C86.6307 38.9469 86.4318 39.1571 86.1705 39.3049C85.9091 39.4554 85.5938 39.5307 85.2244 39.5307C85.196 39.5307 85.1676 39.5307 85.1392 39.5307C85.1108 39.5307 85.0795 39.5293 85.0455 39.5265L85.054 38.8148C85.0824 38.8148 85.1094 38.8148 85.1349 38.8148C85.1605 38.8148 85.1875 38.8148 85.2159 38.8148C85.5284 38.8148 85.7727 38.7182 85.9489 38.525C86.125 38.3319 86.2131 38.0605 86.2131 37.7111V30.5307ZM86.5881 29.4057C86.4347 29.4057 86.3011 29.3532 86.1875 29.248C86.0767 29.1401 86.0213 29.0108 86.0213 28.8603C86.0213 28.7097 86.0767 28.5819 86.1875 28.4767C86.3011 28.3688 86.4347 28.3148 86.5881 28.3148C86.7443 28.3148 86.8778 28.3688 86.9886 28.4767C87.1023 28.5819 87.1591 28.7097 87.1591 28.8603C87.1591 29.0108 87.1023 29.1401 86.9886 29.248C86.8778 29.3532 86.7443 29.4057 86.5881 29.4057ZM90.81 37.2253C90.4151 37.2253 90.0543 37.1486 89.7276 36.9952C89.4009 36.839 89.141 36.6145 88.9478 36.3219C88.7546 36.0265 88.658 35.6685 88.658 35.248C88.658 34.9242 88.7191 34.6515 88.8413 34.4299C88.9634 34.2083 89.1367 34.0265 89.3612 33.8844C89.5856 33.7424 89.8512 33.6301 90.158 33.5478C90.4648 33.4654 90.8029 33.4015 91.1722 33.356C91.5387 33.3105 91.8484 33.2708 92.1012 33.2367C92.3569 33.2026 92.5515 33.1486 92.685 33.0748C92.8185 33.0009 92.8853 32.8816 92.8853 32.7168V32.5634C92.8853 32.1174 92.7518 31.7665 92.4847 31.5108C92.2205 31.2523 91.8398 31.123 91.3427 31.123C90.8711 31.123 90.4862 31.2267 90.1879 31.4341C89.8924 31.6415 89.685 31.8858 89.5657 32.1671L88.8455 31.9071C88.9933 31.5492 89.1978 31.2637 89.4592 31.0506C89.7205 30.8347 90.0131 30.6799 90.337 30.5861C90.6609 30.4895 90.989 30.4412 91.3214 30.4412C91.5714 30.4412 91.8313 30.4739 92.1012 30.5392C92.3739 30.6046 92.6268 30.7182 92.8597 30.8801C93.0927 31.0392 93.2816 31.2623 93.4265 31.5492C93.5714 31.8333 93.6438 32.1941 93.6438 32.6316V37.0762H92.8853V36.0407H92.8384C92.7475 36.2338 92.6126 36.4213 92.4336 36.6032C92.2546 36.785 92.0302 36.9341 91.7603 37.0506C91.4904 37.1671 91.1737 37.2253 90.81 37.2253ZM90.9123 36.5307C91.3157 36.5307 91.6651 36.4412 91.9606 36.2623C92.256 36.0833 92.4833 35.8461 92.6424 35.5506C92.8043 35.2523 92.8853 34.9242 92.8853 34.5662V33.6202C92.8285 33.6742 92.7333 33.7225 92.5998 33.7651C92.4691 33.8077 92.3171 33.8461 92.1438 33.8801C91.9734 33.9114 91.8029 33.9384 91.6325 33.9611C91.462 33.9838 91.3086 34.0037 91.1722 34.0208C90.8029 34.0662 90.4876 34.1373 90.2262 34.2338C89.9648 34.3304 89.7646 34.464 89.6254 34.6344C89.4862 34.802 89.4165 35.0179 89.4165 35.2821C89.4165 35.6799 89.5586 35.9881 89.8427 36.2069C90.1268 36.4228 90.4833 36.5307 90.9123 36.5307ZM95.6616 37.0762V30.5307H96.3988V31.5364H96.467C96.5977 31.1983 96.815 30.9327 97.119 30.7395C97.4258 30.5435 97.7937 30.4455 98.2227 30.4455C98.6744 30.4455 99.0451 30.552 99.3349 30.7651C99.6275 30.9753 99.8462 31.2651 99.9911 31.6344H100.047C100.194 31.2708 100.434 30.9824 100.767 30.7694C101.102 30.5534 101.508 30.4455 101.985 30.4455C102.593 30.4455 103.074 30.6373 103.426 31.0208C103.778 31.4015 103.954 31.9583 103.954 32.6912V37.0762H103.196V32.6912C103.196 32.1742 103.064 31.7864 102.799 31.5279C102.535 31.2694 102.187 31.1401 101.755 31.1401C101.255 31.1401 100.87 31.2935 100.6 31.6003C100.331 31.9071 100.196 32.2963 100.196 32.7679V37.0762H99.4201V32.623C99.4201 32.1799 99.2965 31.8219 99.0494 31.5492C98.8022 31.2765 98.4542 31.1401 98.0053 31.1401C97.7042 31.1401 97.4329 31.214 97.1914 31.3617C96.9528 31.5094 96.7638 31.7154 96.6246 31.9796C96.4883 32.2409 96.4201 32.5421 96.4201 32.883V37.0762H95.6616ZM108.609 37.2125C107.998 37.2125 107.469 37.0705 107.023 36.7864C106.577 36.4995 106.232 36.1032 105.988 35.5975C105.746 35.089 105.626 34.5037 105.626 33.8418C105.626 33.1827 105.746 32.5975 105.988 32.0861C106.232 31.5719 106.569 31.1699 106.998 30.8801C107.43 30.5875 107.928 30.4412 108.494 30.4412C108.849 30.4412 109.191 30.5066 109.521 30.6373C109.85 30.7651 110.146 30.9625 110.407 31.2296C110.671 31.4938 110.88 31.8276 111.033 32.231C111.187 32.6316 111.263 33.106 111.263 33.6543V34.0293H106.15V33.3603H110.488C110.488 32.9398 110.403 32.562 110.232 32.2267C110.065 31.8887 109.83 31.6216 109.529 31.4256C109.231 31.2296 108.886 31.1316 108.494 31.1316C108.079 31.1316 107.714 31.2424 107.398 31.464C107.083 31.6855 106.836 31.9782 106.657 32.3418C106.481 32.7054 106.391 33.1032 106.388 33.535V33.9355C106.388 34.4554 106.478 34.91 106.657 35.2992C106.839 35.6855 107.096 35.9853 107.428 36.1983C107.761 36.4114 108.154 36.5179 108.609 36.5179C108.918 36.5179 109.19 36.4696 109.423 36.373C109.658 36.2765 109.856 36.1472 110.015 35.9853C110.177 35.8205 110.299 35.6401 110.381 35.4441L111.102 35.6784C111.002 35.954 110.839 36.2083 110.612 36.4412C110.387 36.6742 110.106 36.8617 109.768 37.0037C109.433 37.1429 109.046 37.2125 108.609 37.2125ZM117.333 31.9668L116.638 32.1628C116.57 31.9668 116.473 31.7892 116.348 31.6301C116.223 31.4711 116.06 31.3446 115.858 31.2509C115.659 31.1571 115.412 31.1103 115.117 31.1103C114.674 31.1103 114.31 31.2154 114.026 31.4256C113.742 31.6358 113.6 31.9071 113.6 32.2395C113.6 32.5208 113.696 32.7495 113.89 32.9256C114.086 33.0989 114.387 33.2367 114.793 33.339L115.782 33.5819C116.33 33.7154 116.74 33.927 117.013 34.2168C117.289 34.5066 117.426 34.8702 117.426 35.3077C117.426 35.677 117.324 36.0051 117.12 36.2921C116.915 36.579 116.63 36.8049 116.263 36.9696C115.9 37.1316 115.478 37.2125 114.998 37.2125C114.358 37.2125 113.831 37.0691 113.417 36.7821C113.002 36.4924 112.736 36.0748 112.62 35.5293L113.348 35.3503C113.442 35.7395 113.625 36.0336 113.898 36.2324C114.174 36.4313 114.536 36.5307 114.985 36.5307C115.488 36.5307 115.89 36.4185 116.191 36.1941C116.492 35.9668 116.642 35.6827 116.642 35.3418C116.642 35.0776 116.554 34.856 116.378 34.677C116.202 34.4952 115.935 34.3617 115.577 34.2765L114.507 34.0208C113.939 33.8844 113.519 33.6685 113.246 33.373C112.973 33.0776 112.837 32.7111 112.837 32.2736C112.837 31.9128 112.935 31.5961 113.131 31.3233C113.327 31.0478 113.597 30.8319 113.941 30.6756C114.284 30.5194 114.676 30.4412 115.117 30.4412C115.716 30.4412 116.195 30.5776 116.553 30.8503C116.914 31.1202 117.174 31.4924 117.333 31.9668ZM123.928 39.3816C123.116 39.3816 122.386 39.2566 121.738 39.0066C121.09 38.7566 120.538 38.3958 120.08 37.9242C119.626 37.4554 119.276 36.8901 119.032 36.2282C118.79 35.5662 118.67 34.8262 118.67 34.008C118.67 33.2069 118.792 32.4796 119.036 31.8262C119.283 31.1728 119.634 30.6117 120.089 30.1429C120.546 29.6742 121.092 29.3134 121.725 29.0605C122.362 28.8049 123.069 28.677 123.847 28.677C124.609 28.677 125.29 28.8105 125.893 29.0776C126.495 29.3418 127.008 29.7026 127.431 30.16C127.854 30.6174 128.177 31.1387 128.398 31.7239C128.623 32.3063 128.735 32.9157 128.735 33.552C128.735 33.9554 128.704 34.3532 128.641 34.7452C128.582 35.1373 128.478 35.4924 128.33 35.8105C128.183 36.1287 127.978 36.383 127.717 36.5733C127.455 36.7608 127.124 36.8546 126.724 36.8546C126.513 36.8546 126.306 36.8205 126.102 36.7523C125.9 36.6813 125.727 36.5662 125.582 36.4071C125.44 36.2452 125.357 36.0293 125.335 35.7594H125.292C125.201 35.964 125.073 36.1515 124.908 36.3219C124.744 36.4895 124.54 36.623 124.299 36.7225C124.06 36.8219 123.783 36.8674 123.468 36.8588C123.11 36.8503 122.788 36.7708 122.501 36.6202C122.217 36.4696 121.974 36.2637 121.772 36.0023C121.573 35.7409 121.421 35.4384 121.316 35.0946C121.211 34.748 121.158 34.3745 121.158 33.9739C121.158 33.5875 121.217 33.231 121.333 32.9043C121.452 32.5776 121.616 32.2921 121.823 32.0478C122.033 31.8034 122.279 31.6088 122.56 31.464C122.842 31.3191 123.144 31.2353 123.468 31.2125C123.758 31.1926 124.025 31.2211 124.269 31.2978C124.513 31.3716 124.721 31.4796 124.891 31.6216C125.062 31.7637 125.184 31.9242 125.258 32.1032H125.3V31.3319H125.995V35.2821C125.995 35.5804 126.053 35.8134 126.17 35.981C126.289 36.1458 126.477 36.2282 126.732 36.2282C127.042 36.2282 127.293 36.1273 127.487 35.9256C127.683 35.7211 127.826 35.4199 127.917 35.0222C128.008 34.6216 128.053 34.1287 128.053 33.5435C128.053 33.1003 127.991 32.6713 127.866 32.2566C127.744 31.839 127.565 31.4526 127.329 31.0975C127.093 30.7395 126.803 30.427 126.46 30.16C126.116 29.8901 125.722 29.6799 125.279 29.5293C124.839 29.3787 124.35 29.3034 123.813 29.3034C123.148 29.3034 122.545 29.4157 122.002 29.6401C121.46 29.8645 120.992 30.1855 120.6 30.6032C120.211 31.0208 119.911 31.5194 119.701 32.0989C119.491 32.6756 119.386 33.3191 119.386 34.0293C119.386 34.748 119.491 35.3972 119.701 35.9767C119.911 36.5563 120.214 37.052 120.609 37.464C121.006 37.8759 121.487 38.1926 122.049 38.4142C122.612 38.6358 123.245 38.7466 123.95 38.7466C124.262 38.7466 124.569 38.7154 124.87 38.6529C125.174 38.5932 125.45 38.5194 125.697 38.4313C125.947 38.3432 126.148 38.2566 126.302 38.1713L126.519 38.7679C126.309 38.8816 126.059 38.9853 125.769 39.079C125.482 39.1728 125.178 39.2466 124.857 39.3006C124.539 39.3546 124.229 39.3816 123.928 39.3816ZM123.558 36.1898C123.944 36.1898 124.269 36.1003 124.533 35.9213C124.798 35.7424 124.996 35.4853 125.13 35.15C125.266 34.8148 125.335 34.4114 125.335 33.9398C125.335 33.4654 125.262 33.0748 125.117 32.7679C124.975 32.4611 124.772 32.2338 124.508 32.0861C124.246 31.9355 123.937 31.8603 123.579 31.8603C123.232 31.8603 122.928 31.9554 122.667 32.1458C122.408 32.3333 122.205 32.5847 122.058 32.9C121.913 33.2154 121.84 33.562 121.84 33.9398C121.84 34.3404 121.904 34.7111 122.032 35.052C122.163 35.3929 122.354 35.6685 122.607 35.8787C122.863 36.0861 123.18 36.1898 123.558 36.1898ZM132.823 39.6671C132.377 39.6671 131.986 39.6088 131.651 39.4924C131.316 39.3787 131.033 39.2225 130.803 39.0236C130.573 38.8248 130.394 38.6017 130.266 38.3546L130.888 37.9455C130.982 38.1103 131.107 38.2722 131.263 38.4313C131.422 38.5904 131.628 38.7225 131.881 38.8276C132.137 38.9327 132.451 38.9853 132.823 38.9853C133.402 38.9853 133.87 38.8404 134.225 38.5506C134.583 38.2608 134.762 37.8105 134.762 37.1998V35.7253H134.694C134.605 35.9242 134.479 36.123 134.314 36.3219C134.15 36.5179 133.934 36.6813 133.667 36.812C133.402 36.9426 133.074 37.008 132.682 37.008C132.159 37.008 131.695 36.8787 131.289 36.6202C130.885 36.3617 130.567 35.9924 130.334 35.5123C130.104 35.0293 129.989 34.454 129.989 33.7864C129.989 33.1245 130.101 32.5421 130.326 32.0392C130.553 31.5364 130.87 31.1444 131.276 30.8631C131.682 30.5819 132.155 30.4412 132.695 30.4412C133.096 30.4412 133.428 30.5123 133.692 30.6543C133.956 30.7935 134.168 30.9668 134.327 31.1742C134.489 31.3816 134.615 31.5833 134.706 31.7793H134.783V30.5307H135.525V37.2466C135.525 37.8006 135.407 38.2566 135.171 38.6145C134.935 38.9725 134.614 39.2367 134.208 39.4071C133.801 39.5804 133.34 39.6671 132.823 39.6671ZM132.772 36.3134C133.192 36.3134 133.551 36.2125 133.85 36.0108C134.148 35.8063 134.377 35.5137 134.536 35.133C134.695 34.7523 134.775 34.2992 134.775 33.7736C134.775 33.2623 134.696 32.8091 134.54 32.4142C134.384 32.0165 134.157 31.704 133.858 31.4767C133.563 31.2466 133.201 31.1316 132.772 31.1316C132.334 31.1316 131.965 31.2495 131.664 31.4853C131.363 31.7211 131.135 32.0392 130.982 32.4398C130.828 32.8375 130.752 33.2821 130.752 33.7736C130.752 34.2736 130.83 34.7154 130.986 35.0989C131.142 35.4796 131.371 35.7779 131.672 35.9938C131.973 36.2069 132.34 36.3134 132.772 36.3134ZM137.533 37.0762V30.5307H138.27V31.5364H138.338C138.469 31.1983 138.686 30.9327 138.99 30.7395C139.297 30.5435 139.665 30.4455 140.094 30.4455C140.545 30.4455 140.916 30.552 141.206 30.7651C141.499 30.9753 141.717 31.2651 141.862 31.6344H141.918C142.065 31.2708 142.305 30.9824 142.638 30.7694C142.973 30.5534 143.379 30.4455 143.857 30.4455C144.464 30.4455 144.945 30.6373 145.297 31.0208C145.649 31.4015 145.825 31.9583 145.825 32.6912V37.0762H145.067V32.6912C145.067 32.1742 144.935 31.7864 144.67 31.5279C144.406 31.2694 144.058 31.1401 143.626 31.1401C143.126 31.1401 142.741 31.2935 142.472 31.6003C142.202 31.9071 142.067 32.2963 142.067 32.7679V37.0762H141.291V32.623C141.291 32.1799 141.168 31.8219 140.92 31.5492C140.673 31.2765 140.325 31.1401 139.876 31.1401C139.575 31.1401 139.304 31.214 139.062 31.3617C138.824 31.5094 138.635 31.7154 138.496 31.9796C138.359 32.2409 138.291 32.5421 138.291 32.883V37.0762H137.533ZM149.662 37.2253C149.267 37.2253 148.906 37.1486 148.579 36.9952C148.252 36.839 147.993 36.6145 147.799 36.3219C147.606 36.0265 147.51 35.6685 147.51 35.248C147.51 34.9242 147.571 34.6515 147.693 34.4299C147.815 34.2083 147.988 34.0265 148.213 33.8844C148.437 33.7424 148.703 33.6301 149.01 33.5478C149.316 33.4654 149.654 33.4015 150.024 33.356C150.39 33.3105 150.7 33.2708 150.953 33.2367C151.208 33.2026 151.403 33.1486 151.537 33.0748C151.67 33.0009 151.737 32.8816 151.737 32.7168V32.5634C151.737 32.1174 151.603 31.7665 151.336 31.5108C151.072 31.2523 150.691 31.123 150.194 31.123C149.723 31.123 149.338 31.2267 149.039 31.4341C148.744 31.6415 148.537 31.8858 148.417 32.1671L147.697 31.9071C147.845 31.5492 148.049 31.2637 148.311 31.0506C148.572 30.8347 148.865 30.6799 149.189 30.5861C149.512 30.4895 149.841 30.4412 150.173 30.4412C150.423 30.4412 150.683 30.4739 150.953 30.5392C151.225 30.6046 151.478 30.7182 151.711 30.8801C151.944 31.0392 152.133 31.2623 152.278 31.5492C152.423 31.8333 152.495 32.1941 152.495 32.6316V37.0762H151.737V36.0407H151.69C151.599 36.2338 151.464 36.4213 151.285 36.6032C151.106 36.785 150.882 36.9341 150.612 37.0506C150.342 37.1671 150.025 37.2253 149.662 37.2253ZM149.764 36.5307C150.167 36.5307 150.517 36.4412 150.812 36.2623C151.108 36.0833 151.335 35.8461 151.494 35.5506C151.656 35.2523 151.737 34.9242 151.737 34.5662V33.6202C151.68 33.6742 151.585 33.7225 151.451 33.7651C151.321 33.8077 151.169 33.8461 150.995 33.8801C150.825 33.9114 150.654 33.9384 150.484 33.9611C150.314 33.9838 150.16 34.0037 150.024 34.0208C149.654 34.0662 149.339 34.1373 149.078 34.2338C148.816 34.3304 148.616 34.464 148.477 34.6344C148.338 34.802 148.268 35.0179 148.268 35.2821C148.268 35.6799 148.41 35.9881 148.694 36.2069C148.978 36.4228 149.335 36.5307 149.764 36.5307ZM154.522 37.0762V30.5307H155.284V37.0762H154.522ZM154.909 29.4057C154.753 29.4057 154.62 29.3532 154.509 29.248C154.398 29.1401 154.343 29.0108 154.343 28.8603C154.343 28.7097 154.398 28.5819 154.509 28.4767C154.62 28.3688 154.753 28.3148 154.909 28.3148C155.066 28.3148 155.199 28.3688 155.31 28.4767C155.421 28.5819 155.476 28.7097 155.476 28.8603C155.476 29.0108 155.421 29.1401 155.31 29.248C155.199 29.3532 155.066 29.4057 154.909 29.4057ZM158.049 28.3489V37.0762H157.29V28.3489H158.049ZM160.661 37.1401C160.494 37.1401 160.349 37.0804 160.227 36.9611C160.107 36.839 160.048 36.6941 160.048 36.5265C160.048 36.356 160.107 36.2111 160.227 36.0918C160.349 35.9725 160.494 35.9128 160.661 35.9128C160.832 35.9128 160.977 35.9725 161.096 36.0918C161.215 36.2111 161.275 36.356 161.275 36.5265C161.275 36.6373 161.246 36.7395 161.19 36.8333C161.136 36.927 161.062 37.0023 160.968 37.0591C160.877 37.1131 160.775 37.1401 160.661 37.1401ZM165.836 37.2125C165.25 37.2125 164.74 37.0662 164.306 36.7736C163.874 36.481 163.539 36.0804 163.3 35.5719C163.061 35.0634 162.942 34.4838 162.942 33.8333C162.942 33.177 163.063 32.5932 163.304 32.0819C163.549 31.5705 163.887 31.1699 164.319 30.8801C164.75 30.5875 165.252 30.4412 165.823 30.4412C166.26 30.4412 166.657 30.5265 167.012 30.6969C167.367 30.8645 167.659 31.1017 167.89 31.4086C168.123 31.7125 168.269 32.0676 168.328 32.4739H167.561C167.482 32.1046 167.29 31.7892 166.986 31.5279C166.685 31.2637 166.301 31.1316 165.836 31.1316C165.418 31.1316 165.049 31.2452 164.728 31.4725C164.407 31.6969 164.155 32.0108 163.973 32.4142C163.794 32.8148 163.705 33.2793 163.705 33.8077C163.705 34.339 163.793 34.8091 163.969 35.2182C164.145 35.6245 164.392 35.9426 164.711 36.1728C165.032 36.4029 165.407 36.5179 165.836 36.5179C166.125 36.5179 166.39 36.464 166.628 36.356C166.87 36.2452 167.071 36.089 167.233 35.8873C167.398 35.6855 167.509 35.4455 167.566 35.1671H168.333C168.276 35.562 168.135 35.9142 167.911 36.2239C167.689 36.5307 167.401 36.7722 167.046 36.9483C166.694 37.1245 166.29 37.2125 165.836 37.2125ZM172.502 37.2125C171.937 37.2125 171.437 37.0691 171.002 36.7821C170.571 36.4952 170.233 36.0989 169.988 35.5932C169.744 35.0847 169.622 34.498 169.622 33.8333C169.622 33.1628 169.744 32.5733 169.988 32.0648C170.233 31.5534 170.571 31.1557 171.002 30.8716C171.437 30.5847 171.937 30.4412 172.502 30.4412C173.068 30.4412 173.566 30.5847 173.998 30.8716C174.43 31.1586 174.768 31.5563 175.012 32.0648C175.26 32.5733 175.383 33.1628 175.383 33.8333C175.383 34.498 175.261 35.0847 175.017 35.5932C174.772 36.0989 174.433 36.4952 173.998 36.7821C173.566 37.0691 173.068 37.2125 172.502 37.2125ZM172.502 36.5179C172.957 36.5179 173.342 36.3958 173.657 36.1515C173.973 35.9071 174.211 35.5819 174.373 35.1756C174.538 34.7694 174.62 34.3219 174.62 33.8333C174.62 33.3446 174.538 32.8958 174.373 32.4867C174.211 32.0776 173.973 31.7495 173.657 31.5023C173.342 31.2551 172.957 31.1316 172.502 31.1316C172.051 31.1316 171.666 31.2551 171.348 31.5023C171.032 31.7495 170.792 32.0776 170.627 32.4867C170.466 32.8958 170.385 33.3446 170.385 33.8333C170.385 34.3219 170.466 34.7694 170.627 35.1756C170.792 35.5819 171.032 35.9071 171.348 36.1515C171.663 36.3958 172.048 36.5179 172.502 36.5179ZM177.048 37.0762V30.5307H177.786V31.5364H177.854C177.984 31.1983 178.202 30.9327 178.506 30.7395C178.813 30.5435 179.18 30.4455 179.609 30.4455C180.061 30.4455 180.432 30.552 180.722 30.7651C181.014 30.9753 181.233 31.2651 181.378 31.6344H181.433C181.581 31.2708 181.821 30.9824 182.153 30.7694C182.489 30.5534 182.895 30.4455 183.372 30.4455C183.98 30.4455 184.46 30.6373 184.812 31.0208C185.165 31.4015 185.341 31.9583 185.341 32.6912V37.0762H184.582V32.6912C184.582 32.1742 184.45 31.7864 184.186 31.5279C183.922 31.2694 183.574 31.1401 183.142 31.1401C182.642 31.1401 182.257 31.2935 181.987 31.6003C181.717 31.9071 181.582 32.2963 181.582 32.7679V37.0762H180.807V32.623C180.807 32.1799 180.683 31.8219 180.436 31.5492C180.189 31.2765 179.841 31.1401 179.392 31.1401C179.091 31.1401 178.82 31.214 178.578 31.3617C178.339 31.5094 178.151 31.7154 178.011 31.9796C177.875 32.2409 177.807 32.5421 177.807 32.883V37.0762H177.048Z" fill="#7C89BF"/>
<mask id="mask0_641_107" style="mask-type:alpha" maskUnits="userSpaceOnUse" x="202" y="9" width="25" height="25">
<rect x="202.09" y="9.11426" width="24" height="24" fill="#D9D9D9"/>
</mask>
<g mask="url(#mask0_641_107)">
<path d="M214.09 28.3834C213.677 28.3834 213.324 28.2366 213.03 27.9428C212.737 27.6491 212.59 27.296 212.59 26.8835C212.59 26.471 212.737 26.1179 213.03 25.8241C213.324 25.5304 213.677 25.3835 214.09 25.3835C214.502 25.3835 214.855 25.5304 215.149 25.8241C215.443 26.1179 215.59 26.471 215.59 26.8835C215.59 27.296 215.443 27.6491 215.149 27.9428C214.855 28.2366 214.502 28.3834 214.09 28.3834ZM214.09 22.6142C213.677 22.6142 213.324 22.4674 213.03 22.1736C212.737 21.8799 212.59 21.5268 212.59 21.1143C212.59 20.7018 212.737 20.3487 213.03 20.0549C213.324 19.7612 213.677 19.6143 214.09 19.6143C214.502 19.6143 214.855 19.7612 215.149 20.0549C215.443 20.3487 215.59 20.7018 215.59 21.1143C215.59 21.5268 215.443 21.8799 215.149 22.1736C214.855 22.4674 214.502 22.6142 214.09 22.6142ZM214.09 16.845C213.677 16.845 213.324 16.6981 213.03 16.4044C212.737 16.1107 212.59 15.7575 212.59 15.345C212.59 14.9326 212.737 14.5794 213.03 14.2857C213.324 13.992 213.677 13.8451 214.09 13.8451C214.502 13.8451 214.855 13.992 215.149 14.2857C215.443 14.5794 215.59 14.9326 215.59 15.345C215.59 15.7575 215.443 16.1107 215.149 16.4044C214.855 16.6981 214.502 16.845 214.09 16.845Z" fill="#1E1F21"/>
</g>
<mask id="mask1_641_107" style="mask-type:alpha" maskUnits="userSpaceOnUse" x="202" y="9" width="24" height="25">
<rect x="202" y="9.03809" width="24" height="24" fill="#D9D9D9"/>
</mask>
<g mask="url(#mask1_641_107)">
<path d="M214 28.3073C213.588 28.3073 213.234 28.1604 212.941 27.8667C212.647 27.5729 212.5 27.2198 212.5 26.8073C212.5 26.3948 212.647 26.0417 212.941 25.748C213.234 25.4542 213.588 25.3073 214 25.3073C214.412 25.3073 214.766 25.4542 215.059 25.748C215.353 26.0417 215.5 26.3948 215.5 26.8073C215.5 27.2198 215.353 27.5729 215.059 27.8667C214.766 28.1604 214.412 28.3073 214 28.3073ZM214 22.5381C213.588 22.5381 213.234 22.3912 212.941 22.0974C212.647 21.8037 212.5 21.4506 212.5 21.0381C212.5 20.6256 212.647 20.2725 212.941 19.9787C213.234 19.685 213.588 19.5381 214 19.5381C214.412 19.5381 214.766 19.685 215.059 19.9787C215.353 20.2725 215.5 20.6256 215.5 21.0381C215.5 21.4506 215.353 21.8037 215.059 22.0974C214.766 22.3912 214.412 22.5381 214 22.5381ZM214 16.7688C213.588 16.7688 213.234 16.622 212.941 16.3282C212.647 16.0345 212.5 15.6814 212.5 15.2689C212.5 14.8564 212.647 14.5033 212.941 14.2095C213.234 13.9158 213.588 13.7689 214 13.7689C214.412 13.7689 214.766 13.9158 215.059 14.2095C215.353 14.5033 215.5 14.8564 215.5 15.2689C215.5 15.6814 215.353 16.0345 215.059 16.3282C214.766 16.622 214.412 16.7688 214 16.7688Z" fill="white"/>
</g>
</svg>
